# Blender v3.0.0 OBJ File: ''
# www.blender.org
mtllib myosin.mtl
o Grid
v -1.250000 0.110000 0.010000
v -1.489980 0.110276 0.010000
v -1.490020 0.090277 0.010000
v -1.639999 0.100716 -0.030000
v -1.623232 0.064823 -0.021506
v -1.587389 0.064715 0.000000
v -1.639999 0.100716 0.030000
v -1.623232 0.064823 0.021506
v -1.630400 0.064844 0.043012
v -1.594342 0.136422 0.071686
v -1.630185 0.136530 0.043012
v -1.629999 0.100686 0.090000
v -1.623016 0.136508 0.021506
v -1.587174 0.136401 0.000000
v -1.599999 0.100596 0.100000
v -1.500000 0.100296 0.010000
v -1.629999 0.100686 -0.090000
v -1.594557 0.064737 -0.071686
v -1.630400 0.064844 -0.043012
v -1.649999 0.100746 0.060000
v -1.522867 0.064519 0.007169
v -1.490020 0.090277 -0.010000
v -1.594557 0.064737 0.071686
v 0.000000 0.110000 0.010000
v 0.000000 0.090000 -0.010000
v 0.000000 0.090000 0.010000
v 0.000000 0.110000 -0.010000
v -1.594342 0.136422 -0.071686
v -1.599999 0.100596 -0.100000
v -1.250000 0.110000 -0.010000
v -1.250000 0.090000 -0.010000
v -1.250000 0.090000 0.010000
v -1.649999 0.100746 -0.060000
v -1.522661 0.136204 -0.007169
v -1.489980 0.110276 -0.010000
v -1.500000 0.100296 -0.010000
v -1.522661 0.136204 0.007169
v -1.522867 0.064519 -0.007169
v -1.630185 0.136530 -0.043012
v -1.623016 0.136508 -0.021506
vt 0.457037 0.756421
vt 0.457038 0.886643
vt 0.457038 0.886643
vt 0.628885 0.968032
vt 0.592393 0.958876
vt 0.500000 0.939428
vt 0.371114 0.968032
vt 0.407607 0.958876
vt 0.315214 0.962766
vt 0.192023 0.943317
vt 0.315214 0.962766
vt 0.113342 0.962606
vt 0.407607 0.958876
vt 0.500000 0.939428
vt 0.070380 0.946328
vt 0.457038 0.892069
vt 0.886657 0.962606
vt 0.807977 0.943317
vt 0.684786 0.962766
vt 0.242228 0.973458
vt 0.469202 0.904421
vt 0.542962 0.886643
vt 0.192023 0.943317
vt 0.457037 0.078178
vt 0.457037 0.078178
vt 0.542961 0.078178
vt 0.542961 0.078178
vt 0.807977 0.943317
vt 0.929620 0.946328
vt 0.542962 0.756421
vt 0.542962 0.756421
vt 0.457037 0.756421
vt 0.757771 0.973458
vt 0.530797 0.904421
vt 0.542962 0.886643
vt 0.542962 0.892069
vt 0.469202 0.904421
vt 0.530797 0.904421
vt 0.684786 0.962766
vt 0.592393 0.958876
vn -0.0000 -0.0000 1.0000
vn -0.5142 -0.0374 0.8568
vn -0.8903 -0.3458 -0.2964
vn -0.8903 -0.3457 -0.2964
vn -0.4355 0.7149 0.5471
vn -0.5140 0.0405 -0.8568
vn 0.6035 0.4336 0.6691
vn 0.6035 0.4335 0.6692
vn -0.4398 -0.7123 -0.5471
vn -0.6769 -0.5825 0.4501
vn -0.0030 -1.0000 0.0000
vn 0.6171 -0.7869 0.0000
vn -0.4398 -0.7123 0.5471
vn 1.0000 0.0000 0.0000
vn 0.6009 -0.4371 0.6692
vn 0.6009 -0.4372 0.6692
vn -0.2453 0.6247 -0.7414
vn 0.0006 1.0000 0.0000
vn 0.0000 1.0000 0.0000
vn -0.0012 -1.0000 0.0000
vn -0.0006 -1.0000 0.0000
vn -0.6769 -0.5825 -0.4501
vn 0.0031 1.0000 -0.0000
vn 0.0030 1.0000 -0.0000
vn 0.0000 0.0000 -1.0000
vn 0.6035 0.4336 -0.6691
vn -0.0481 0.0483 0.9977
vn -0.4946 0.0015 -0.8691
vn 0.6009 -0.4371 -0.6692
vn 0.6009 -0.4372 -0.6692
vn 0.0012 1.0000 0.0000
vn -0.4355 0.7149 -0.5471
vn -0.8882 0.3511 -0.2964
vn -0.8882 0.3511 0.2964
vn 0.6009 -0.4370 -0.6692
vn -0.0483 -0.0481 0.9977
vn -0.2490 -0.6232 -0.7414
vn 0.0000 -1.0000 0.0000
vn -0.8903 -0.3457 0.2964
vn 0.6215 0.7834 0.0000
vn -0.5142 -0.0374 -0.8568
vn 0.6009 -0.4370 0.6692
vn -0.0483 -0.0481 -0.9977
vn -0.2453 0.6247 0.7414
vn -0.6734 0.5865 0.4501
vn 0.6035 0.4335 -0.6692
vn -0.5140 0.0405 0.8568
vn -0.0481 0.0483 -0.9977
vn -0.6734 0.5865 -0.4501
vn -0.4946 0.0015 0.8691
vn -0.2490 -0.6232 0.7414
usemtl None
s 1
f 1/1/1 2/2/1 3/3/1
f 4/4/2 5/5/2 6/6/2
f 7/7/3 8/8/4 9/9/4
f 10/10/5 11/11/5 12/12/5
f 7/7/6 13/13/6 14/14/6
f 10/10/7 15/15/8 16/16/7
f 17/17/9 18/18/9 19/19/9
f 12/12/10 20/20/10 9/9/10
f 5/5/11 19/19/11 18/18/11
f 21/21/12 22/22/12 3/3/12
f 23/23/13 12/12/13 9/9/13
f 24/24/14 26/25/14 25/26/14
f 24/24/14 25/26/14 27/27/14
f 16/16/15 15/15/16 23/23/15
f 28/28/17 29/29/17 17/17/17
f 1/1/18 27/27/19 30/30/18
f 3/3/20 31/31/21 32/32/21
f 19/19/22 33/33/22 17/17/22
f 34/34/23 28/28/24 14/14/24
f 7/7/3 9/9/4 20/20/3
f 35/35/25 22/22/25 36/36/25
f 6/6/11 5/5/11 18/18/11
f 36/36/26 28/28/26 34/34/26
f 2/2/27 37/37/27 16/16/27
f 38/38/11 21/21/11 6/6/11
f 1/1/1 32/32/1 26/25/1
f 7/7/28 14/14/28 6/6/28
f 27/27/25 25/26/25 31/31/25
f 36/36/29 18/18/29 29/29/30
f 1/1/18 35/35/31 2/2/31
f 39/39/32 28/28/32 17/17/32
f 7/7/33 11/11/33 13/13/33
f 39/39/34 4/4/34 40/40/34
f 36/36/29 38/38/35 18/18/29
f 16/16/36 21/21/36 3/3/36
f 28/28/24 40/40/24 14/14/24
f 37/37/23 34/34/23 14/14/24
f 17/17/37 29/29/37 18/18/37
f 1/1/18 24/24/19 27/27/19
f 39/39/34 33/33/34 4/4/34
f 3/3/20 22/22/20 31/31/21
f 18/18/11 38/38/11 6/6/11
f 32/32/21 31/31/21 25/26/38
f 4/4/39 19/19/39 5/5/39
f 1/1/18 30/30/18 35/35/31
f 2/2/40 35/35/40 34/34/40
f 35/35/25 30/30/25 31/31/25
f 6/6/41 8/8/41 7/7/41
f 16/16/15 23/23/15 21/21/42
f 10/10/7 16/16/7 37/37/7
f 27/27/25 31/31/25 30/30/25
f 1/1/1 26/25/1 24/24/1
f 22/22/43 38/38/43 36/36/43
f 35/35/25 31/31/25 22/22/25
f 2/2/40 34/34/40 37/37/40
f 15/15/44 10/10/44 12/12/44
f 11/11/45 20/20/45 12/12/45
f 13/13/24 11/11/24 10/10/24
f 32/32/38 25/26/38 26/25/38
f 7/7/33 20/20/33 11/11/33
f 36/36/26 29/29/46 28/28/26
f 3/3/1 32/32/1 1/1/1
f 2/2/1 16/16/1 3/3/1
f 4/4/39 33/33/39 19/19/39
f 40/40/47 4/4/47 14/14/47
f 36/36/48 34/34/48 35/35/48
f 17/17/49 33/33/49 39/39/49
f 23/23/11 9/9/11 8/8/11
f 28/28/24 39/39/24 40/40/24
f 14/14/50 4/4/50 6/6/50
f 15/15/51 12/12/51 23/23/51
f 14/14/24 13/13/24 10/10/24
f 10/10/24 37/37/23 14/14/24
f 21/21/11 23/23/11 6/6/11
f 23/23/11 8/8/11 6/6/11
f 21/21/12 38/38/12 22/22/12
